<?xml version="1.0" encoding="iso-8859-1"?>
<!-- Generator: Adobe Illustrator 19.0.0, SVG Export Plug-In . SVG Version: 6.00 Build 0)  -->
<svg version="1.1" id="Layer_1" xmlns="http://www.w3.org/2000/svg" xmlns:xlink="http://www.w3.org/1999/xlink" x="0px" y="0px"
	 viewBox="0 0 512 512" style="enable-background:new 0 0 512 512;" xml:space="preserve">
<g>
	<g>
		<path d="M479.721,234.508H336c-1.194,0-2.359-0.224-3.443-0.64H0v90.378h44.627c9.411-15.615,26.53-26.082,46.053-26.082
			c19.523,0,36.642,10.467,46.052,26.082h255.42c9.411-15.615,26.53-26.082,46.051-26.082c19.523,0,36.642,10.467,46.053,26.082H512
			v-57.459C512,248.989,497.519,234.508,479.721,234.508z M273.85,291.14h-24.96c-7.07,0-12.8-5.731-12.8-12.8
			c0-7.07,5.731-12.8,12.8-12.8h24.96c7.068,0,12.8,5.731,12.8,12.8C286.65,285.41,280.918,291.14,273.85,291.14z"/>
	</g>
</g>
<g>
	<g>
		<path d="M275.744,152.068c-11.095-16.593-29.635-26.498-49.596-26.498h-13.552v82.698h100.727L275.744,152.068z"/>
	</g>
</g>
<g>
	<g>
		<path d="M93.585,125.57c-47.919,0-87.518,36.208-92.931,82.698h186.343V125.57H93.585z"/>
	</g>
</g>
<g>
	<g>
		<path d="M90.678,317.365c-19.04,0-34.532,15.492-34.532,34.532s15.492,34.532,34.532,34.532s34.532-15.492,34.532-34.532
			S109.719,317.365,90.678,317.365z"/>
	</g>
</g>
<g>
	<g>
		<path d="M438.202,317.365c-19.04,0-34.532,15.492-34.532,34.532s15.492,34.532,34.532,34.532
			c19.042,0,34.534-15.492,34.534-34.532S457.243,317.365,438.202,317.365z"/>
	</g>
</g>
<g>
</g>
<g>
</g>
<g>
</g>
<g>
</g>
<g>
</g>
<g>
</g>
<g>
</g>
<g>
</g>
<g>
</g>
<g>
</g>
<g>
</g>
<g>
</g>
<g>
</g>
<g>
</g>
<g>
</g>
</svg>
